<mxfile host="app.diagrams.net" modified="2022-08-29T00:35:32.287Z" agent="5.0 (Windows NT 10.0; Win64; x64) AppleWebKit/537.36 (KHTML, like Gecko) Chrome/104.0.5112.102 Safari/537.36 Edg/104.0.1293.70" etag="2FsTg6ctwAde8dh8LhSN" version="20.2.7" type="github">
  <diagram id="E9MvIbREFryEpwZpblNl" name="第 1 页">
    <mxGraphModel dx="476" dy="329" grid="1" gridSize="1" guides="1" tooltips="1" connect="1" arrows="1" fold="1" page="1" pageScale="1" pageWidth="827" pageHeight="1169" math="1" shadow="0">
      <root>
        <mxCell id="0" />
        <mxCell id="1" parent="0" />
        <mxCell id="FLT7gCXpaoDRiRNvlhls-1" value="" style="shape=manualInput;whiteSpace=wrap;html=1;rotation=90;size=32;rounded=0;fillColor=#A9C4EB;" parent="1" vertex="1">
          <mxGeometry x="154.38" y="355.63" width="137.5" height="46.25" as="geometry" />
        </mxCell>
        <mxCell id="FLT7gCXpaoDRiRNvlhls-7" value="" style="shape=manualInput;whiteSpace=wrap;html=1;rotation=85;size=32;flipH=0;flipV=1;rounded=0;fillColor=#A9C4EB;" parent="1" vertex="1">
          <mxGeometry x="221.36" y="355.21" width="135.68" height="45.19" as="geometry" />
        </mxCell>
        <mxCell id="FLT7gCXpaoDRiRNvlhls-10" value="" style="endArrow=none;dashed=1;html=1;rounded=0;" parent="1" edge="1">
          <mxGeometry width="50" height="50" relative="1" as="geometry">
            <mxPoint x="184" y="379" as="sourcePoint" />
            <mxPoint x="361" y="379" as="targetPoint" />
          </mxGeometry>
        </mxCell>
        <mxCell id="FLT7gCXpaoDRiRNvlhls-18" value="" style="shape=image;html=1;verticalAlign=top;verticalLabelPosition=bottom;labelBackgroundColor=#ffffff;imageAspect=0;aspect=fixed;image=https://cdn2.iconfinder.com/data/icons/font-awesome/1792/rotate-left-128.png;rounded=0;imageBackground=none;imageBorder=none;fontColor=#000000;perimeterSpacing=0;noLabel=0;direction=east;metaEdit=0;backgroundOutline=0;" parent="1" vertex="1">
          <mxGeometry x="333.87" y="366.94" width="23.63" height="23.63" as="geometry" />
        </mxCell>
        <mxCell id="FLT7gCXpaoDRiRNvlhls-21" value="" style="shape=manualInput;whiteSpace=wrap;html=1;rotation=90;size=32;rounded=0;fillColor=#A9C4EB;" parent="1" vertex="1">
          <mxGeometry x="360.38" y="355.63" width="137.5" height="46.25" as="geometry" />
        </mxCell>
        <mxCell id="FLT7gCXpaoDRiRNvlhls-22" value="" style="shape=manualInput;whiteSpace=wrap;html=1;rotation=85;size=32;flipH=0;flipV=1;rounded=0;fillColor=#A9C4EB;strokeColor=#36393d;" parent="1" vertex="1">
          <mxGeometry x="426" y="355.63" width="137.5" height="46.25" as="geometry" />
        </mxCell>
        <mxCell id="FLT7gCXpaoDRiRNvlhls-23" value="" style="endArrow=none;dashed=1;html=1;rounded=0;" parent="1" edge="1">
          <mxGeometry width="50" height="50" relative="1" as="geometry">
            <mxPoint x="389" y="378" as="sourcePoint" />
            <mxPoint x="580" y="379" as="targetPoint" />
          </mxGeometry>
        </mxCell>
        <mxCell id="FLT7gCXpaoDRiRNvlhls-24" value="" style="shape=image;html=1;verticalAlign=top;verticalLabelPosition=bottom;labelBackgroundColor=#ffffff;imageAspect=0;aspect=fixed;image=https://cdn2.iconfinder.com/data/icons/font-awesome/1792/rotate-left-128.png;rounded=0;rotation=-5;" parent="1" vertex="1">
          <mxGeometry x="545" y="358.63" width="23.63" height="23.63" as="geometry" />
        </mxCell>
        <mxCell id="FLT7gCXpaoDRiRNvlhls-26" value="" style="endArrow=none;dashed=1;html=1;rounded=0;fontSize=12;startSize=14;endSize=14;curved=1;fillColor=#f8cecc;strokeColor=#FF0000;" parent="1" edge="1">
          <mxGeometry width="50" height="50" relative="1" as="geometry">
            <mxPoint x="469" y="380.63" as="sourcePoint" />
            <mxPoint x="583" y="368.6831733100187" as="targetPoint" />
          </mxGeometry>
        </mxCell>
        <mxCell id="FLT7gCXpaoDRiRNvlhls-28" value="" style="endArrow=none;dashed=1;html=1;rounded=0;fontSize=12;startSize=14;endSize=14;curved=1;entryX=0;entryY=0;entryDx=0;entryDy=0;strokeColor=#0000FF;" parent="1" target="FLT7gCXpaoDRiRNvlhls-7" edge="1">
          <mxGeometry width="50" height="50" relative="1" as="geometry">
            <mxPoint x="306" y="371" as="sourcePoint" />
            <mxPoint x="305" y="308" as="targetPoint" />
          </mxGeometry>
        </mxCell>
        <mxCell id="FLT7gCXpaoDRiRNvlhls-29" value="" style="endArrow=none;dashed=1;html=1;rounded=0;fontSize=12;startSize=14;endSize=14;curved=1;entryX=0;entryY=0;entryDx=0;entryDy=0;strokeColor=#0000FF;" parent="1" target="FLT7gCXpaoDRiRNvlhls-22" edge="1">
          <mxGeometry width="50" height="50" relative="1" as="geometry">
            <mxPoint x="511" y="367.63" as="sourcePoint" />
            <mxPoint x="512" y="308.63" as="targetPoint" />
          </mxGeometry>
        </mxCell>
        <mxCell id="FLT7gCXpaoDRiRNvlhls-45" value="" style="endArrow=none;dashed=1;html=1;rounded=0;strokeColor=#FF0000;" parent="1" edge="1">
          <mxGeometry width="50" height="50" relative="1" as="geometry">
            <mxPoint x="263" y="378.67" as="sourcePoint" />
            <mxPoint x="364" y="379" as="targetPoint" />
          </mxGeometry>
        </mxCell>
        <mxCell id="FLT7gCXpaoDRiRNvlhls-49" value="" style="endArrow=none;dashed=1;html=1;rounded=0;fontSize=12;startSize=14;endSize=14;curved=1;fillColor=#f8cecc;strokeColor=#000000;" parent="1" edge="1">
          <mxGeometry width="50" height="50" relative="1" as="geometry">
            <mxPoint x="249" y="382.26" as="sourcePoint" />
            <mxPoint x="363" y="370.31317331001867" as="targetPoint" />
          </mxGeometry>
        </mxCell>
        <mxCell id="FLT7gCXpaoDRiRNvlhls-50" value="棱镜形状误差" style="text;html=1;resizable=0;autosize=1;align=center;verticalAlign=middle;points=[];fillColor=none;strokeColor=none;rounded=0;fontSize=6;fontColor=#000000;fontFamily=微软雅黑;" parent="1" vertex="1">
          <mxGeometry x="211" y="453" width="90" height="26" as="geometry" />
        </mxCell>
        <mxCell id="FLT7gCXpaoDRiRNvlhls-51" value="轴承装配误差" style="text;html=1;resizable=0;autosize=1;align=center;verticalAlign=middle;points=[];fillColor=none;strokeColor=none;rounded=0;fontSize=6;fontColor=#000000;fontFamily=微软雅黑;" parent="1" vertex="1">
          <mxGeometry x="423" y="453" width="90" height="26" as="geometry" />
        </mxCell>
        <mxCell id="FLT7gCXpaoDRiRNvlhls-52" value="" style="shape=manualInput;whiteSpace=wrap;html=1;rotation=90;size=27;rounded=0;fillColor=#A9C4EB;" parent="1" vertex="1">
          <mxGeometry x="155" y="555" width="130" height="40" as="geometry" />
        </mxCell>
        <mxCell id="FLT7gCXpaoDRiRNvlhls-71" value="" style="endArrow=none;dashed=1;html=1;rounded=0;strokeColor=#FF0000;" parent="1" edge="1">
          <mxGeometry width="50" height="50" relative="1" as="geometry">
            <mxPoint x="140" y="575" as="sourcePoint" />
            <mxPoint x="260" y="575" as="targetPoint" />
          </mxGeometry>
        </mxCell>
        <mxCell id="FLT7gCXpaoDRiRNvlhls-54" value="" style="endArrow=classicThin;html=1;rounded=0;fontFamily=微软雅黑;fontSize=6;fontColor=#000000;startSize=14;endSize=6;strokeColor=#00FF00;curved=1;entryX=0.5;entryY=1;entryDx=0;entryDy=0;endFill=1;" parent="1" target="FLT7gCXpaoDRiRNvlhls-52" edge="1">
          <mxGeometry width="50" height="50" relative="1" as="geometry">
            <mxPoint x="140" y="575" as="sourcePoint" />
            <mxPoint x="320" y="510" as="targetPoint" />
          </mxGeometry>
        </mxCell>
        <mxCell id="FLT7gCXpaoDRiRNvlhls-56" value="" style="endArrow=classicThin;html=1;rounded=0;fontFamily=微软雅黑;fontSize=6;fontColor=#000000;startSize=14;endSize=6;strokeColor=#0000FF;curved=1;entryX=0.5;entryY=1;entryDx=0;entryDy=0;endFill=1;" parent="1" edge="1">
          <mxGeometry width="50" height="50" relative="1" as="geometry">
            <mxPoint x="140" y="550" as="sourcePoint" />
            <mxPoint x="200" y="550" as="targetPoint" />
          </mxGeometry>
        </mxCell>
        <mxCell id="FLT7gCXpaoDRiRNvlhls-57" value="" style="endArrow=classicThin;html=1;rounded=0;fontFamily=微软雅黑;fontSize=6;fontColor=#000000;startSize=14;endSize=6;strokeColor=#FFFF00;curved=1;entryX=0.5;entryY=1;entryDx=0;entryDy=0;endFill=1;" parent="1" edge="1">
          <mxGeometry width="50" height="50" relative="1" as="geometry">
            <mxPoint x="140" y="600" as="sourcePoint" />
            <mxPoint x="200" y="600" as="targetPoint" />
          </mxGeometry>
        </mxCell>
        <mxCell id="FLT7gCXpaoDRiRNvlhls-66" value="" style="shape=manualInput;whiteSpace=wrap;html=1;rotation=90;size=27;rounded=0;fillColor=#A9C4EB;" parent="1" vertex="1">
          <mxGeometry x="323" y="555" width="130" height="40" as="geometry" />
        </mxCell>
        <mxCell id="FLT7gCXpaoDRiRNvlhls-72" value="" style="endArrow=classicThin;html=1;rounded=0;fontFamily=微软雅黑;fontSize=6;fontColor=#000000;startSize=14;endSize=6;strokeColor=#0000FF;curved=1;endFill=1;" parent="1" edge="1">
          <mxGeometry width="50" height="50" relative="1" as="geometry">
            <mxPoint x="308.1" y="560" as="sourcePoint" />
            <mxPoint x="336" y="567" as="targetPoint" />
          </mxGeometry>
        </mxCell>
        <mxCell id="FLT7gCXpaoDRiRNvlhls-73" value="" style="endArrow=none;html=1;rounded=0;fontFamily=微软雅黑;fontSize=6;fontColor=#000000;startSize=14;endSize=6;strokeColor=#0000FF;curved=1;exitX=0.5;exitY=1;exitDx=0;exitDy=0;" parent="1" source="FLT7gCXpaoDRiRNvlhls-66" edge="1">
          <mxGeometry width="50" height="50" relative="1" as="geometry">
            <mxPoint x="328" y="620" as="sourcePoint" />
            <mxPoint x="308" y="560" as="targetPoint" />
          </mxGeometry>
        </mxCell>
        <mxCell id="FLT7gCXpaoDRiRNvlhls-74" value="" style="endArrow=classicThin;html=1;rounded=0;fontFamily=微软雅黑;fontSize=6;fontColor=#000000;startSize=14;endSize=6;strokeColor=#FFFF00;curved=1;endFill=1;" parent="1" edge="1">
          <mxGeometry width="50" height="50" relative="1" as="geometry">
            <mxPoint x="308" y="590" as="sourcePoint" />
            <mxPoint x="336" y="583" as="targetPoint" />
          </mxGeometry>
        </mxCell>
        <mxCell id="FLT7gCXpaoDRiRNvlhls-75" value="" style="endArrow=none;html=1;rounded=0;fontFamily=微软雅黑;fontSize=6;fontColor=#000000;startSize=14;endSize=6;strokeColor=#000000;curved=1;exitX=0.5;exitY=1;exitDx=0;exitDy=0;" parent="1" edge="1">
          <mxGeometry width="50" height="50" relative="1" as="geometry">
            <mxPoint x="368.2" y="575.0000000000001" as="sourcePoint" />
            <mxPoint x="308.2" y="590" as="targetPoint" />
          </mxGeometry>
        </mxCell>
        <mxCell id="FLT7gCXpaoDRiRNvlhls-78" value="" style="endArrow=none;dashed=1;html=1;rounded=0;strokeColor=#FF0000;" parent="1" edge="1">
          <mxGeometry width="50" height="50" relative="1" as="geometry">
            <mxPoint x="308" y="574.9399999999998" as="sourcePoint" />
            <mxPoint x="451" y="575" as="targetPoint" />
          </mxGeometry>
        </mxCell>
        <mxCell id="FLT7gCXpaoDRiRNvlhls-76" value="" style="endArrow=none;html=1;rounded=0;fontFamily=微软雅黑;fontSize=6;fontColor=#000000;startSize=14;endSize=6;strokeColor=#00FF00;curved=1;exitX=0.5;exitY=1;exitDx=0;exitDy=0;" parent="1" source="FLT7gCXpaoDRiRNvlhls-66" edge="1">
          <mxGeometry width="50" height="50" relative="1" as="geometry">
            <mxPoint x="378" y="585" as="sourcePoint" />
            <mxPoint x="308" y="575" as="targetPoint" />
          </mxGeometry>
        </mxCell>
        <mxCell id="FLT7gCXpaoDRiRNvlhls-77" value="" style="endArrow=classicThin;html=1;rounded=0;fontFamily=微软雅黑;fontSize=6;fontColor=#000000;startSize=14;endSize=6;strokeColor=#00FF00;curved=1;endFill=1;" parent="1" edge="1">
          <mxGeometry width="50" height="50" relative="1" as="geometry">
            <mxPoint x="309.88" y="574.94" as="sourcePoint" />
            <mxPoint x="335" y="575" as="targetPoint" />
          </mxGeometry>
        </mxCell>
        <mxCell id="FLT7gCXpaoDRiRNvlhls-79" value="" style="endArrow=none;html=1;rounded=0;fontFamily=微软雅黑;fontSize=6;fontColor=#000000;startSize=14;endSize=6;strokeColor=#000000;curved=1;exitX=0.5;exitY=1;exitDx=0;exitDy=0;" parent="1" edge="1">
          <mxGeometry width="50" height="50" relative="1" as="geometry">
            <mxPoint x="368.20000000000005" y="575.0000000000001" as="sourcePoint" />
            <mxPoint x="308.20000000000005" y="590" as="targetPoint" />
          </mxGeometry>
        </mxCell>
        <mxCell id="FLT7gCXpaoDRiRNvlhls-80" value="" style="endArrow=none;html=1;rounded=0;fontFamily=微软雅黑;fontSize=6;fontColor=#000000;startSize=14;endSize=6;strokeColor=#FFFF00;curved=1;exitX=0.5;exitY=1;exitDx=0;exitDy=0;" parent="1" edge="1">
          <mxGeometry width="50" height="50" relative="1" as="geometry">
            <mxPoint x="368.20000000000005" y="575.0000000000001" as="sourcePoint" />
            <mxPoint x="308.20000000000005" y="590" as="targetPoint" />
          </mxGeometry>
        </mxCell>
        <mxCell id="FLT7gCXpaoDRiRNvlhls-81" value="" style="endArrow=none;html=1;rounded=0;fontFamily=微软雅黑;fontSize=6;fontColor=#000000;startSize=14;endSize=6;strokeColor=#FFFF00;curved=1;exitX=0.5;exitY=1;exitDx=0;exitDy=0;entryX=0.474;entryY=0.356;entryDx=0;entryDy=0;entryPerimeter=0;" parent="1" source="FLT7gCXpaoDRiRNvlhls-66" target="FLT7gCXpaoDRiRNvlhls-66" edge="1">
          <mxGeometry width="50" height="50" relative="1" as="geometry">
            <mxPoint x="405" y="582" as="sourcePoint" />
            <mxPoint x="424" y="558" as="targetPoint" />
          </mxGeometry>
        </mxCell>
        <mxCell id="FLT7gCXpaoDRiRNvlhls-82" value="" style="endArrow=none;html=1;rounded=0;fontFamily=微软雅黑;fontSize=6;fontColor=#000000;startSize=14;endSize=6;strokeColor=#0000FF;curved=1;exitX=0.523;exitY=0.318;exitDx=0;exitDy=0;entryX=0.5;entryY=1;entryDx=0;entryDy=0;exitPerimeter=0;" parent="1" source="FLT7gCXpaoDRiRNvlhls-66" target="FLT7gCXpaoDRiRNvlhls-66" edge="1">
          <mxGeometry width="50" height="50" relative="1" as="geometry">
            <mxPoint x="393.76" y="579.0000000000001" as="sourcePoint" />
            <mxPoint x="367.9999999999999" y="575.62" as="targetPoint" />
          </mxGeometry>
        </mxCell>
        <mxCell id="FLT7gCXpaoDRiRNvlhls-86" value="" style="endArrow=none;html=1;rounded=0;fontFamily=微软雅黑;fontSize=6;fontColor=#000000;startSize=14;endSize=6;strokeColor=#00FF00;curved=1;" parent="1" edge="1">
          <mxGeometry width="50" height="50" relative="1" as="geometry">
            <mxPoint x="368" y="574.98" as="sourcePoint" />
            <mxPoint x="395" y="574.98" as="targetPoint" />
          </mxGeometry>
        </mxCell>
        <mxCell id="FLT7gCXpaoDRiRNvlhls-87" value="" style="endArrow=classicThin;html=1;rounded=0;fontFamily=微软雅黑;fontSize=6;fontColor=#000000;startSize=6;endSize=6;strokeColor=#FFFF00;curved=1;exitX=0.474;exitY=0.356;exitDx=0;exitDy=0;exitPerimeter=0;endFill=1;" parent="1" source="FLT7gCXpaoDRiRNvlhls-66" edge="1">
          <mxGeometry width="50" height="50" relative="1" as="geometry">
            <mxPoint x="394" y="571" as="sourcePoint" />
            <mxPoint x="434" y="570" as="targetPoint" />
          </mxGeometry>
        </mxCell>
        <mxCell id="FLT7gCXpaoDRiRNvlhls-88" value="" style="endArrow=classicThin;html=1;rounded=0;fontFamily=微软雅黑;fontSize=6;fontColor=#000000;startSize=6;endSize=6;strokeColor=#00FF00;curved=1;exitX=0.5;exitY=0.339;exitDx=0;exitDy=0;exitPerimeter=0;endFill=1;" parent="1" source="FLT7gCXpaoDRiRNvlhls-66" edge="1">
          <mxGeometry width="50" height="50" relative="1" as="geometry">
            <mxPoint x="397" y="579" as="sourcePoint" />
            <mxPoint x="434" y="580" as="targetPoint" />
          </mxGeometry>
        </mxCell>
        <mxCell id="FLT7gCXpaoDRiRNvlhls-89" value="" style="endArrow=none;html=1;rounded=0;fontFamily=微软雅黑;fontSize=6;fontColor=#000000;startSize=6;endSize=6;strokeColor=#0000FF;curved=1;entryX=0.523;entryY=0.324;entryDx=0;entryDy=0;entryPerimeter=0;startArrow=classicThin;startFill=1;" parent="1" target="FLT7gCXpaoDRiRNvlhls-66" edge="1">
          <mxGeometry width="50" height="50" relative="1" as="geometry">
            <mxPoint x="433" y="587" as="sourcePoint" />
            <mxPoint x="395" y="578" as="targetPoint" />
          </mxGeometry>
        </mxCell>
        <mxCell id="EjsXjk1iRoXSMkVuqYEu-2" value="" style="endArrow=none;html=1;startSize=6;strokeColor=#0000FF;rounded=0;" edge="1" parent="1">
          <mxGeometry width="50" height="50" relative="1" as="geometry">
            <mxPoint x="200" y="550" as="sourcePoint" />
            <mxPoint x="221" y="550" as="targetPoint" />
          </mxGeometry>
        </mxCell>
        <mxCell id="EjsXjk1iRoXSMkVuqYEu-3" value="" style="endArrow=none;html=1;startSize=6;strokeColor=#00FF00;rounded=0;" edge="1" parent="1">
          <mxGeometry width="50" height="50" relative="1" as="geometry">
            <mxPoint x="200.36" y="574.99" as="sourcePoint" />
            <mxPoint x="226" y="575" as="targetPoint" />
          </mxGeometry>
        </mxCell>
        <mxCell id="EjsXjk1iRoXSMkVuqYEu-4" value="" style="endArrow=none;html=1;startSize=6;strokeColor=#FFFF00;rounded=0;entryX=0.693;entryY=0.205;entryDx=0;entryDy=0;entryPerimeter=0;" edge="1" parent="1" target="FLT7gCXpaoDRiRNvlhls-52">
          <mxGeometry width="50" height="50" relative="1" as="geometry">
            <mxPoint x="200" y="600" as="sourcePoint" />
            <mxPoint x="225.64" y="600.01" as="targetPoint" />
          </mxGeometry>
        </mxCell>
        <mxCell id="EjsXjk1iRoXSMkVuqYEu-6" value="" style="endArrow=classicThin;html=1;rounded=0;fontFamily=微软雅黑;fontSize=6;fontColor=#000000;startSize=6;endSize=6;strokeColor=#0000FF;curved=1;exitX=0.5;exitY=0.339;exitDx=0;exitDy=0;exitPerimeter=0;endFill=1;" edge="1" parent="1">
          <mxGeometry width="50" height="50" relative="1" as="geometry">
            <mxPoint x="221.36000000000018" y="550" as="sourcePoint" />
            <mxPoint x="260.92" y="555" as="targetPoint" />
          </mxGeometry>
        </mxCell>
        <mxCell id="EjsXjk1iRoXSMkVuqYEu-7" value="" style="endArrow=classicThin;html=1;rounded=0;fontFamily=微软雅黑;fontSize=6;fontColor=#000000;startSize=6;endSize=6;strokeColor=#00FF00;curved=1;exitX=0.5;exitY=0.339;exitDx=0;exitDy=0;exitPerimeter=0;endFill=1;" edge="1" parent="1">
          <mxGeometry width="50" height="50" relative="1" as="geometry">
            <mxPoint x="226.0000000000001" y="575" as="sourcePoint" />
            <mxPoint x="265.56000000000006" y="580" as="targetPoint" />
          </mxGeometry>
        </mxCell>
        <mxCell id="EjsXjk1iRoXSMkVuqYEu-8" value="" style="endArrow=classicThin;html=1;rounded=0;fontFamily=微软雅黑;fontSize=6;fontColor=#000000;startSize=6;endSize=6;strokeColor=#FFFF00;curved=1;exitX=0.5;exitY=0.339;exitDx=0;exitDy=0;exitPerimeter=0;endFill=1;" edge="1" parent="1">
          <mxGeometry width="50" height="50" relative="1" as="geometry">
            <mxPoint x="232.0000000000001" y="600" as="sourcePoint" />
            <mxPoint x="271.56000000000006" y="605" as="targetPoint" />
          </mxGeometry>
        </mxCell>
        <mxCell id="EjsXjk1iRoXSMkVuqYEu-9" value="入射点位置误差" style="text;html=1;resizable=0;autosize=1;align=center;verticalAlign=middle;points=[];fillColor=none;strokeColor=none;rounded=0;fontSize=6;fontColor=#000000;fontFamily=微软雅黑;" vertex="1" parent="1">
          <mxGeometry x="172.13" y="646" width="103" height="27" as="geometry" />
        </mxCell>
        <mxCell id="EjsXjk1iRoXSMkVuqYEu-10" value="入射光线姿态误差" style="text;html=1;resizable=0;autosize=1;align=center;verticalAlign=middle;points=[];fillColor=none;strokeColor=none;rounded=0;fontSize=6;fontColor=#000000;fontFamily=微软雅黑;" vertex="1" parent="1">
          <mxGeometry x="331" y="646" width="115" height="27" as="geometry" />
        </mxCell>
      </root>
    </mxGraphModel>
  </diagram>
</mxfile>
